<svg xmlns="http://www.w3.org/2000/svg" width="16" height="12"><path fill="#666" d="M1.993 11.42c-1.101 0-1.994-.806-1.994-1.792V2.245C0 1.255.897.453 1.994.453H14c1.101 0 1.994.805 1.994 1.792v7.383c0 .99-.897 1.792-1.994 1.792zm3.842-5.57L2.017 9.084a.412.412 0 00-.02.623.53.53 0 00.693.022l3.9-3.303 1.089.832a.53.53 0 00.632 0L9.4 6.426l3.902 3.301a.53.53 0 00.692-.021.409.409 0 00-.02-.623L10.157 5.85l3.802-2.9a.413.413 0 00.056-.623.532.532 0 00-.692-.05L7.996 6.34 2.673 2.273a.528.528 0 00-.692.051.41.41 0 00.056.623z"/><path fill="#41cdb8" d="M1.993 11.42c-1.101 0-1.994-.806-1.994-1.792V2.245C0 1.255.897.453 1.994.453H14c1.101 0 1.994.805 1.994 1.792v7.383c0 .99-.897 1.792-1.994 1.792zm3.842-5.57L2.017 9.084a.412.412 0 00-.02.623.53.53 0 00.693.022l3.9-3.303 1.089.832a.53.53 0 00.632 0L9.4 6.426l3.902 3.301a.53.53 0 00.692-.021.409.409 0 00-.02-.623L10.157 5.85l3.802-2.9a.413.413 0 00.056-.623.532.532 0 00-.692-.05L7.996 6.34 2.673 2.273a.528.528 0 00-.692.051.41.41 0 00.056.623z"/></svg>