<svg xmlns="http://www.w3.org/2000/svg" xmlns:xlink="http://www.w3.org/1999/xlink"><symbol id="icon-envelope-gray" viewBox="0 0 16 12"><g><g opacity=".5"><path fill="#666" d="M1.993 11.42c-1.101 0-1.994-.806-1.994-1.792V2.245C0 1.255.896.453 1.993.453h12.006c1.101 0 1.994.806 1.994 1.792v7.383c0 .99-.897 1.792-1.994 1.792zm3.842-5.568L2.017 9.084a.412.412 0 0 0-.02.623.53.53 0 0 0 .693.021l3.901-3.3 1.089.83a.531.531 0 0 0 .632 0l1.089-.83 3.902 3.3a.53.53 0 0 0 .692-.021.409.409 0 0 0-.02-.623l-3.818-3.232L13.96 2.95a.413.413 0 0 0 .056-.622.532.532 0 0 0-.692-.05L7.996 6.34 2.673 2.273a.528.528 0 0 0-.692.051.41.41 0 0 0 .056.623z"/><path fill="#fff" d="M1.993 11.42c-1.101 0-1.994-.806-1.994-1.792V2.245C0 1.255.896.453 1.993.453h12.006c1.101 0 1.994.806 1.994 1.792v7.383c0 .99-.897 1.792-1.994 1.792zm3.842-5.568L2.017 9.084a.412.412 0 0 0-.02.623.53.53 0 0 0 .693.021l3.901-3.3 1.089.83a.531.531 0 0 0 .632 0l1.089-.83 3.902 3.3a.53.53 0 0 0 .692-.021.409.409 0 0 0-.02-.623l-3.818-3.232L13.96 2.95a.413.413 0 0 0 .056-.622.532.532 0 0 0-.692-.05L7.996 6.34 2.673 2.273a.528.528 0 0 0-.692.051.41.41 0 0 0 .056.623z"/></g></g></symbol><symbol id="icon-envelope"><path fill="#666" d="M1.993 11.42c-1.101 0-1.994-.806-1.994-1.792V2.245C0 1.255.897.453 1.994.453H14c1.101 0 1.994.805 1.994 1.792v7.383c0 .99-.897 1.792-1.994 1.792zm3.842-5.57L2.017 9.084a.412.412 0 00-.02.623.53.53 0 00.693.022l3.9-3.303 1.089.832a.53.53 0 00.632 0L9.4 6.426l3.902 3.301a.53.53 0 00.692-.021.409.409 0 00-.02-.623L10.157 5.85l3.802-2.9a.413.413 0 00.056-.623.532.532 0 00-.692-.05L7.996 6.34 2.673 2.273a.528.528 0 00-.692.051.41.41 0 00.056.623z"/><path fill="#41cdb8" d="M1.993 11.42c-1.101 0-1.994-.806-1.994-1.792V2.245C0 1.255.897.453 1.994.453H14c1.101 0 1.994.805 1.994 1.792v7.383c0 .99-.897 1.792-1.994 1.792zm3.842-5.57L2.017 9.084a.412.412 0 00-.02.623.53.53 0 00.693.022l3.9-3.303 1.089.832a.53.53 0 00.632 0L9.4 6.426l3.902 3.301a.53.53 0 00.692-.021.409.409 0 00-.02-.623L10.157 5.85l3.802-2.9a.413.413 0 00.056-.623.532.532 0 00-.692-.05L7.996 6.34 2.673 2.273a.528.528 0 00-.692.051.41.41 0 00.056.623z"/></symbol><symbol id="icon-geo-gray" viewBox="0 0 12 15"><g><g opacity=".5"><path fill="#00ffd7" d="M12 5.98c0 .387-.037.765-.108 1.134 0 0-.012.067-.04.187a5.72 5.72 0 0 1-.404 1.187c-.604 1.427-1.995 3.803-5.116 6.386a.523.523 0 0 1-.666 0C2.545 12.288 1.154 9.91.553 8.49a5.99 5.99 0 0 1-.524-3.093C.315 2.432 2.798.108 5.786.003 9.196-.117 12 2.603 12 5.98zm-3.087.07A2.91 2.91 0 0 0 6 3.145 2.91 2.91 0 0 0 3.085 6.05a2.91 2.91 0 0 0 2.914 2.905A2.91 2.91 0 0 0 8.913 6.05z"/><path fill="#fff" d="M12 5.98c0 .387-.037.765-.108 1.134 0 0-.012.067-.04.187a5.72 5.72 0 0 1-.404 1.187c-.604 1.427-1.995 3.803-5.116 6.386a.523.523 0 0 1-.666 0C2.545 12.288 1.154 9.91.553 8.49a5.99 5.99 0 0 1-.524-3.093C.315 2.432 2.798.108 5.786.003 9.196-.117 12 2.603 12 5.98zm-3.087.07A2.91 2.91 0 0 0 6 3.145 2.91 2.91 0 0 0 3.085 6.05a2.91 2.91 0 0 0 2.914 2.905A2.91 2.91 0 0 0 8.913 6.05z"/></g></g></symbol><symbol id="icon-geo"><path fill="#00ffd8" d="M12 5.98c0 .387-.037.765-.108 1.134 0 0-.012.067-.04.187a5.722 5.722 0 01-.404 1.187c-.604 1.426-1.995 3.803-5.116 6.385a.523.523 0 01-.666 0C2.545 12.288 1.154 9.911.553 8.491a5.984 5.984 0 01-.524-3.093C.315 2.432 2.798.108 5.786.003 9.196-.117 12 2.603 12 5.98zm-3.087.07A2.91 2.91 0 006 3.145 2.91 2.91 0 003.085 6.05a2.91 2.91 0 002.914 2.905A2.91 2.91 0 008.913 6.05z"/></symbol><symbol id="icon-phone-gray" viewBox="0 0 13 13"><g><g opacity=".5"><path fill="#666" d="M12.995 10.675c-.37 1.202-1.748 2.074-3.278 2.074-.15 0-.301-.009-.448-.025-1.86-.245-4.037-1.416-5.828-3.133C1.556 7.939.28 5.944.027 4.253-.23 2.541.607 1.265 2.262.838c.085-.022.175-.033.268-.033.969 0 2.124 1.255 2.525 2.156.261.586.241 1.038-.057 1.306-.75.673-1.029 1.083-.997 1.46.037.42.464.907 1.19 1.604a20.092 20.092 0 0 0 .72.66c.81.708 1.338 1.093 1.813 1.093.396 0 .824-.257 1.529-.916.106-.1.303-.22.635-.22.874 0 2.108.783 2.712 1.514.366.442.502.861.394 1.213z"/><path fill="#fff" d="M12.995 10.675c-.37 1.202-1.748 2.074-3.278 2.074-.15 0-.301-.009-.448-.025-1.86-.245-4.037-1.416-5.828-3.133C1.556 7.939.28 5.944.027 4.253-.23 2.541.607 1.265 2.262.838c.085-.022.175-.033.268-.033.969 0 2.124 1.255 2.525 2.156.261.586.241 1.038-.057 1.306-.75.673-1.029 1.083-.997 1.46.037.42.464.907 1.19 1.604a20.092 20.092 0 0 0 .72.66c.81.708 1.338 1.093 1.813 1.093.396 0 .824-.257 1.529-.916.106-.1.303-.22.635-.22.874 0 2.108.783 2.712 1.514.366.442.502.861.394 1.213z"/></g></g></symbol><symbol id="icon-phone"><path fill="#666" d="M12.995 10.675c-.37 1.202-1.748 2.075-3.278 2.074a4.16 4.16 0 01-.448-.025c-1.86-.245-4.037-1.415-5.828-3.133C1.556 7.939.28 5.944.027 4.253-.23 2.541.607 1.265 2.262.838A1.07 1.07 0 012.53.805c.969 0 2.124 1.255 2.525 2.156.261.586.241 1.038-.057 1.306-.75.673-1.029 1.083-.997 1.46.037.42.464.907 1.19 1.604a21.035 21.035 0 00.72.66c.81.709 1.338 1.092 1.813 1.092.396 0 .824-.256 1.529-.916.106-.1.303-.218.635-.218.874 0 2.108.782 2.712 1.512.366.443.502.862.394 1.214z"/><path fill="#41cdb8" d="M12.995 10.675c-.37 1.202-1.748 2.075-3.278 2.074a4.16 4.16 0 01-.448-.025c-1.86-.245-4.037-1.415-5.828-3.133C1.556 7.939.28 5.944.027 4.253-.23 2.541.607 1.265 2.262.838A1.07 1.07 0 012.53.805c.969 0 2.124 1.255 2.525 2.156.261.586.241 1.038-.057 1.306-.75.673-1.029 1.083-.997 1.46.037.42.464.907 1.19 1.604a21.035 21.035 0 00.72.66c.81.709 1.338 1.092 1.813 1.092.396 0 .824-.256 1.529-.916.106-.1.303-.218.635-.218.874 0 2.108.782 2.712 1.512.366.443.502.862.394 1.214z"/></symbol></svg>