<svg xmlns="http://www.w3.org/2000/svg" width="16" height="12" viewBox="0 0 16 12"><g><g><path fill="#666" d="M1.993 11.42c-1.101 0-1.994-.806-1.994-1.792V2.245C0 1.255.897.453 1.994.453h12.006c1.101 0 1.994.805 1.994 1.792v7.383c0 .99-.897 1.792-1.994 1.792zM5.835 5.85L2.017 9.084a.412.412 0 0 0-.02.623.53.53 0 0 0 .693.022L6.59 6.426l1.089.832a.53.53 0 0 0 .632 0l1.089-.832 3.902 3.301a.53.53 0 0 0 .692-.021.409.409 0 0 0-.02-.623L10.157 5.85l3.802-2.9a.413.413 0 0 0 .056-.623.532.532 0 0 0-.692-.05L7.996 6.34 2.673 2.273a.528.528 0 0 0-.692.051.41.41 0 0 0 .056.623z"/><path fill="#41cdb8" d="M1.993 11.42c-1.101 0-1.994-.806-1.994-1.792V2.245C0 1.255.897.453 1.994.453h12.006c1.101 0 1.994.805 1.994 1.792v7.383c0 .99-.897 1.792-1.994 1.792zM5.835 5.85L2.017 9.084a.412.412 0 0 0-.02.623.53.53 0 0 0 .693.022L6.59 6.426l1.089.832a.53.53 0 0 0 .632 0l1.089-.832 3.902 3.301a.53.53 0 0 0 .692-.021.409.409 0 0 0-.02-.623L10.157 5.85l3.802-2.9a.413.413 0 0 0 .056-.623.532.532 0 0 0-.692-.05L7.996 6.34 2.673 2.273a.528.528 0 0 0-.692.051.41.41 0 0 0 .056.623z"/></g></g></svg>